<?xml version="1.0" encoding="UTF-8"?>
<svg enable-background="new 0 0 2560 1600" version="1.1" viewBox="0 0 2560 1600" xml:space="preserve" xmlns="http://www.w3.org/2000/svg"><defs><filter id="c" x="-.2208" y="-.2208" width="1.4416" height="1.4416" color-interpolation-filters="sRGB"><feGaussianBlur stdDeviation="67.616687"/></filter><filter id="b" x="-.024" y="-.024" width="1.048" height="1.048" color-interpolation-filters="sRGB"><feGaussianBlur stdDeviation="4.52978"/></filter><filter id="a" x="-.034208" y="-.068368" width="1.0684" height="1.1367" color-interpolation-filters="sRGB"><feGaussianBlur result="fbSourceGraphic" stdDeviation="7.831021"/><feColorMatrix in="fbSourceGraphic" result="fbSourceGraphicAlpha" values="0 0 0 -1 0 0 0 0 -1 0 0 0 0 -1 0 0 0 0 1 0"/><feTurbulence baseFrequency="0.002 0.107" in="fbSourceGraphic"/><feColorMatrix result="result91" values="2 0 0 0 0 0 0 0 0 0 0 0 0 0 0 0 0 0 0.5 0.5"/><feDisplacementMap in="fbSourceGraphic" in2="result91" scale="20.800000000000001" xChannelSelector="R"/></filter></defs><linearGradient id="h" x1="1280" x2="1280" y1="909" y2="1285" gradientUnits="userSpaceOnUse"><stop stop-color="#8C712F" offset="0"/><stop stop-color="#194A6B" offset="1"/></linearGradient><linearGradient id="g" x1="1280" x2="1280" y1="909" y2="-5.7467e-8" gradientUnits="userSpaceOnUse"><stop stop-color="#E7AD00" offset="0"/><stop stop-color="#E75F01" offset="1"/></linearGradient><radialGradient id="f" cx="2090" cy="381.61" r="367.48" gradientUnits="userSpaceOnUse"><stop stop-color="#EBBD00" offset="0"/><stop stop-color="#EBCB3F" offset="1"/></radialGradient><radialGradient id="e" cx="2082.6" cy="1282.1" r="337.49" gradientUnits="userSpaceOnUse"><stop stop-color="#729B3F" offset="0"/><stop stop-color="#EEFE45" offset="1"/></radialGradient><rect y="1285" width="2560" height="315"/><rect y="909" width="2560" height="376" fill="url(#h)"/><rect width="2560" height="909" fill="url(#g)"/><path d="m630.19 919.47c-2.061 8.583-7.345 14.663-15.223 17.575-12.968 4.793-23.474-0.989-29.99-12.318-1.113-1.923-1.971-3.991-2.635-6.107l-48.222-152.97c-0.851-2.69-4.814-2.144-4.897 0.685l-2.787 93.075 53.167 398.95c1.874 14.109-9.095 26.642-23.329 26.642h-32.59c-11.869 0-21.877-8.825-23.357-20.597l-44.902-357.04-44.902 357.04c-1.48 11.772-11.488 20.597-23.35 20.597h-32.59c-14.234 0-25.21-12.533-23.329-26.642l53.167-398.95-2.787-93.075c-0.083-2.829-4.053-3.375-4.897-0.685l-48.221 152.97c-0.671 2.116-1.529 4.184-2.635 6.107-6.522 11.329-17.028 17.111-29.99 12.318-7.885-2.912-13.162-8.991-15.23-17.575-1.273-5.305-1.003-10.866 0.512-16.108l69.213-239.7c6.502-22.527 27.119-38.034 50.566-38.034h108.96c23.447 0 44.065 15.507 50.566 38.034l69.213 239.7c1.513 5.243 1.783 10.804 0.504 16.109z"/><circle cx="455.43" cy="549.55" r="64.554"/><path d="m936.8 916.82c-2.453 8.808-8.74 14.94-18.444 17.655-15.661 4.387-27.218-2.487-33.357-16.847l-51.969-178.13c-0.377-1.307-2.271-1.186-2.48 0.162l-10.432 67.138c-1.651 10.627-0.836 21.49 2.386 31.753l71.161 226.91c3.888 12.399-5.377 25.014-18.376 25.014h-49.476c-2.958 0-5.472 2.19-5.876 5.121l-23.201 168.12c-1.678 12.197-12.103 21.281-24.414 21.281h-27.347c-12.312 0-22.736-9.084-24.414-21.281l-23.201-168.12c-0.404-2.931-2.911-5.121-5.876-5.121h-49.476c-12.999 0-22.265-12.615-18.377-25.014l71.161-226.91c3.221-10.263 4.036-21.126 2.385-31.753l-10.425-67.138c-0.209-1.348-2.103-1.469-2.487-0.162l-51.969 178.13c-6.139 14.36-17.696 21.234-33.357 16.847-9.704-2.716-15.991-8.848-18.444-17.655-1.476-5.31-1.22-10.95 0.458-16.193l78.654-246.35c5.404-16.941 21.146-28.437 38.93-28.437h120.22c17.777 0 33.518 11.496 38.923 28.437l78.654 246.35c1.68 5.242 1.936 10.883 0.461 16.193z"/><circle cx="758.65" cy="550.48" r="65.478"/><path d="m2364.8 1284.8c0-151.72-122.99-274.71-274.71-274.71s-274.71 122.99-274.71 274.71h105.4c0 0.065-2e-3 0.129-2e-3 0.194h338.62c0-0.065-2e-3 -0.129-2e-3 -0.194h105.4z" fill="url(#e)" filter="url(#a)"/><g transform="translate(0,100)"><circle cx="2090" cy="381.61" r="367.48" fill="url(#f)" filter="url(#c)"/><circle cx="2090" cy="381.61" r="226.49" fill="url(#d)" filter="url(#b)"/></g><polygon points="2560 833 2497 833 2453 833 1751 833 1707 833 1005 833 961 833 259 833 215 833 0 833 0 877 215 877 215 1285 259 1285 259 877 961 877 961 1285 1005 1285 1005 877 1707 877 1707 1285 1751 1285 1751 877 2453 877 2453 1285 2497 1285 2497 877 2560 877"/><radialGradient id="d" cx="2090" cy="381.61" r="226.49" gradientUnits="userSpaceOnUse"><stop stop-color="#ff0" offset="0"/><stop stop-color="#EEFE45" offset="1"/></radialGradient></svg>
